<?xml version="1.0" standalone="no"?><!DOCTYPE svg PUBLIC "-//W3C//DTD SVG 1.1//EN" "http://www.w3.org/Graphics/SVG/1.1/DTD/svg11.dtd"><svg t="1600683537141" class="icon" viewBox="0 0 1024 1024" version="1.1" xmlns="http://www.w3.org/2000/svg" p-id="2097" width="24" height="24" xmlns:xlink="http://www.w3.org/1999/xlink"><defs><style type="text/css"></style></defs><path d="M512 32a480 480 0 1 1 0 960 480 480 0 0 1 0-960z m0 64a416 416 0 1 0 0 832 416 416 0 0 0 0-832z m19.2 320c7.04 0 12.8 5.76 12.8 12.8v326.4a12.8 12.8 0 0 1-12.8 12.8h-38.4a12.8 12.8 0 0 1-12.8-12.8V428.8c0-7.04 5.76-12.8 12.8-12.8zM512 256a48 48 0 1 1 0 96A48 48 0 0 1 512 256z" p-id="2098" fill="#1890ff"></path></svg>