<?xml version="1.0" standalone="no"?><!DOCTYPE svg PUBLIC "-//W3C//DTD SVG 1.1//EN" "http://www.w3.org/Graphics/SVG/1.1/DTD/svg11.dtd"><svg t="1600686516379" class="icon" viewBox="0 0 1024 1024" version="1.1" xmlns="http://www.w3.org/2000/svg" p-id="3303" width="24" height="24" xmlns:xlink="http://www.w3.org/1999/xlink"><defs><style type="text/css"></style></defs><path d="M512 995.555556c267.064889 0 483.555556-216.490667 483.555556-483.555556a481.152 481.152 0 0 0-64.028445-240.64 485.504 485.504 0 0 0-76.060444-99.740444A481.891556 481.891556 0 0 0 512 28.444444C244.935111 28.444444 28.444444 244.935111 28.444444 512s216.490667 483.555556 483.555556 483.555556z m0 28.444444C229.233778 1024 0 794.766222 0 512S229.233778 0 512 0c142.222222 0 270.890667 57.984 363.662222 151.608889a513.948444 513.948444 0 0 1 80.526222 105.571555A509.653333 509.653333 0 0 1 1024 512c0 282.766222-229.233778 512-512 512z" p-id="3304" fill="#f5222d"></path><path d="M707.043556 274.332444l50.275555 50.275556-191.488 191.488L759.267556 709.546667l-50.275556 50.289777L515.555556 566.385778 324.608 757.319111l-50.275556-50.275555 190.933334-190.947556L276.280889 327.111111l50.275555-50.289778L515.555556 465.820444z" p-id="3305" fill="#f5222d"></path></svg>