<?xml version="1.0" standalone="no"?><!DOCTYPE svg PUBLIC "-//W3C//DTD SVG 1.1//EN" "http://www.w3.org/Graphics/SVG/1.1/DTD/svg11.dtd"><svg t="1600686425687" class="icon" viewBox="0 0 1024 1024" version="1.1" xmlns="http://www.w3.org/2000/svg" p-id="2839" width="24" height="24" xmlns:xlink="http://www.w3.org/1999/xlink"><defs><style type="text/css"></style></defs><path d="M512 992a480 480 0 1 1 0-960 480 480 0 0 1 0 960z m0-64.00000001a416 416 0 1 0 0-831.99999998 416 416 0 0 0 0 831.99999998z m-19.19999999-319.99999999c-7.04 0-12.8-5.76-12.80000001-12.8l0-326.4a12.8 12.8 0 0 1 12.8-12.79999999l38.4 0a12.8 12.8 0 0 1 12.8 12.79999999L544 595.2c0 7.04-5.76 12.8-12.80000001 12.8zM512 767.99999999a48 48 0 1 1 0-95.99999999A48 48 0 0 1 512 767.99999999z" p-id="2840" fill="#faad14"></path></svg>