<?xml version="1.0" standalone="no"?><!DOCTYPE svg PUBLIC "-//W3C//DTD SVG 1.1//EN" "http://www.w3.org/Graphics/SVG/1.1/DTD/svg11.dtd"><svg t="1600683444644" class="icon" viewBox="0 0 1024 1024" version="1.1" xmlns="http://www.w3.org/2000/svg" p-id="1400" width="24" height="24" xmlns:xlink="http://www.w3.org/1999/xlink"><defs><style type="text/css"></style></defs><path d="M512 981.3504A469.3504 469.3504 0 1 0 512 42.6496a469.3504 469.3504 0 0 0 0 938.7008zM512 1024C229.2224 1024 0 794.7776 0 512S229.2224 0 512 0s512 229.2224 512 512-229.2224 512-512 512z" p-id="1401" fill="#52c41a"></path><path d="M425.472 642.048l268.9536-298.7008a24.0128 24.0128 0 0 1 35.6864 32.1024l-286.208 317.9008a23.9104 23.9104 0 0 1-12.032 7.168 24.0128 24.0128 0 0 1-24.576-6.9632l-113.0496-125.5424a24.0128 24.0128 0 0 1 35.6864-32.1024l95.5392 106.0864z" p-id="1402" fill="#52c41a"></path></svg>