<?xml version="1.0" standalone="no"?><!DOCTYPE svg PUBLIC "-//W3C//DTD SVG 1.1//EN" "http://www.w3.org/Graphics/SVG/1.1/DTD/svg11.dtd"><svg t="1600750620699" class="icon" viewBox="0 0 1024 1024" version="1.1" xmlns="http://www.w3.org/2000/svg" p-id="1711" xmlns:xlink="http://www.w3.org/1999/xlink" width="12" height="12"><defs><style type="text/css"></style></defs><path d="M583.168 502.44266667L958.464 127.14666667c18.944-18.944 18.944-50.176 0-69.12l-2.048-2.048c-18.944-18.944-50.176-18.944-69.12 0L512 431.78666667 136.704 55.97866667c-18.944-18.944-50.176-18.944-69.12 0l-2.048 2.048c-19.456 18.944-19.456 50.176 0 69.12l375.296 375.296L65.536 877.73866667c-18.944 18.944-18.944 50.176 0 69.12l2.048 2.048c18.944 18.944 50.176 18.944 69.12 0L512 573.61066667 887.296 948.90666667c18.944 18.944 50.176 18.944 69.12 0l2.048-2.048c18.944-18.944 18.944-50.176 0-69.12L583.168 502.44266667z" fill="#8a8a8a" p-id="1712"></path></svg>