<?xml version="1.0" standalone="no"?><!DOCTYPE svg PUBLIC "-//W3C//DTD SVG 1.1//EN" "http://www.w3.org/Graphics/SVG/1.1/DTD/svg11.dtd"><svg t="1600686490301" class="icon" viewBox="0 0 1024 1024" version="1.1" xmlns="http://www.w3.org/2000/svg" p-id="3071" width="14" height="14" xmlns:xlink="http://www.w3.org/1999/xlink"><defs><style type="text/css"></style></defs><path d="M512 0C229.2224 0 0 229.2224 0 512s229.2224 512 512 512 512-229.2224 512-512S794.7776 0 512 0z m240.9984 703.2832c12.5952 12.4416 12.8 32.6144 0.512 45.312a32.1536 32.1536 0 0 1-45.312 0.512L512 556.8l-196.1984 192.2048a31.9488 31.9488 0 0 1-45.312-0.512 31.9488 31.9488 0 0 1 0.512-45.312L466.2784 512 271.0016 320.7168a32.1536 32.1536 0 0 1-0.512-45.312 32.1536 32.1536 0 0 1 45.312-0.512L512 467.2l196.1984-192.2048a31.9488 31.9488 0 0 1 45.312 0.512 31.9488 31.9488 0 0 1-0.512 45.312L557.7216 512l195.2768 191.2832z" p-id="3072" fill="#f5222d"></path></svg>