<?xml version="1.0" standalone="no"?><!DOCTYPE svg PUBLIC "-//W3C//DTD SVG 1.1//EN" "http://www.w3.org/Graphics/SVG/1.1/DTD/svg11.dtd"><svg t="1600686395647" class="icon" viewBox="0 0 1024 1024" version="1.1" xmlns="http://www.w3.org/2000/svg" p-id="2607" width="14" height="14" xmlns:xlink="http://www.w3.org/1999/xlink"><defs><style type="text/css"></style></defs><path d="M512 0c282.794667 0 512 229.205333 512 512s-229.205333 512-512 512S0 794.794667 0 512 229.205333 0 512 0z m0 640a39.9872 39.9872 0 0 0 40.004267-40.004267V230.997333A39.9872 39.9872 0 0 0 512 191.0016a39.9872 39.9872 0 0 0-40.004267 39.995733v368.9984A39.9872 39.9872 0 0 0 512 640z m-44.996267 108.996267a44.996267 44.996267 0 1 0 89.992534 0 44.996267 44.996267 0 0 0-89.992534 0z" p-id="2608" fill="#faad14"></path></svg>