<?xml version="1.0" standalone="no"?><!DOCTYPE svg PUBLIC "-//W3C//DTD SVG 1.1//EN" "http://www.w3.org/Graphics/SVG/1.1/DTD/svg11.dtd"><svg t="1600683562646" class="icon" viewBox="0 0 1024 1024" version="1.1" xmlns="http://www.w3.org/2000/svg" p-id="2329" width="14" height="14" xmlns:xlink="http://www.w3.org/1999/xlink"><defs><style type="text/css"></style></defs><path d="M512 1024c-282.794667 0-512-229.205333-512-512s229.205333-512 512-512S1024 229.205333 1024 512 794.794667 1024 512 1024z m0-640a39.9872 39.9872 0 0 0-40.004267 40.004267L471.995733 793.002667A39.9872 39.9872 0 0 0 512 832.9984a39.9872 39.9872 0 0 0 40.004267-39.995733l0-368.9984A39.9872 39.9872 0 0 0 512 384z m44.996267-108.996267a44.996267 44.996267 0 1 0-89.992534 0 44.996267 44.996267 0 0 0 89.992534 0z" p-id="2330" fill="#1890ff"></path></svg>