<?xml version="1.0" standalone="no"?><!DOCTYPE svg PUBLIC "-//W3C//DTD SVG 1.1//EN" "http://www.w3.org/Graphics/SVG/1.1/DTD/svg11.dtd"><svg t="1600683352620" class="icon" viewBox="0 0 1024 1024" version="1.1" xmlns="http://www.w3.org/2000/svg" p-id="1168" width="14" height="14" xmlns:xlink="http://www.w3.org/1999/xlink"><defs><style type="text/css"></style></defs><path d="M512 0C229.2224 0 0 229.2224 0 512s229.2224 512 512 512 512-229.2224 512-512S794.7776 0 512 0z m356.0448 343.808l-428.544 378.88a35.4816 35.4816 0 0 1-46.6944 0l-163.6864-142.1824a28.16 28.16 0 0 1 0-42.496 35.4816 35.4816 0 0 1 46.6944 0l140.3904 120.9856 405.0944-357.632a35.4816 35.4816 0 0 1 46.7456 0 28.16 28.16 0 0 1 0 42.4448z" p-id="1169" fill="#52c41a"></path></svg>